<svg width="48" height="48" viewBox="0 0 48 48" fill="none" xmlns="http://www.w3.org/2000/svg">
<path d="M40.4001 13.2L33.8001 19.8L37.4001 37.6C37.6001 38.2 37.4001 39 36.8001 39.4L35.4001 40.8C34.4001 41.8 32.6001 41.4 32.2001 40.2L27.0001 26.8L20.2001 33.6L20.6001 38C20.6001 38.6 20.4001 39.2 20.0001 39.6L17.8001 41.8L13.6001 34.8L6.6001 30.6L8.6001 28C9.0001 27.6 9.6001 27.4 10.2001 27.4L14.6001 27.8L21.4001 21L7.8001 15.8C6.6001 15.2 6.2001 13.6 7.2001 12.6L8.6001 11.2C9.0001 10.8 9.8001 10.6 10.4001 10.6L28.2001 14.2L34.8001 7.60002C36.4001 6.00002 38.8001 6.00002 40.4001 7.60002C42.0001 9.20002 42.0001 11.6 40.4001 13.2Z" stroke="#DB1808" stroke-width="1.5" stroke-linecap="round" stroke-linejoin="round"/>
</svg>
