<svg width="48" height="48" viewBox="0 0 48 48" fill="none" xmlns="http://www.w3.org/2000/svg">
<path d="M34 14H38C40.21 14 42 15.79 42 18V38C42 40.21 40.21 42 38 42H10C7.79 42 6 40.21 6 38V18C6 15.79 7.79 14 10 14H14" stroke="#DB1808" stroke-width="1.5" stroke-linecap="round" stroke-linejoin="round"/>
<path d="M16.168 19.534L15.88 17.364C15.88 17.364 15.88 17.364 15.88 17.362L14.55 15.622C13.818 14.664 13.818 13.334 14.55 12.376L15.88 10.636L16.17 8.46199C16.33 7.26599 17.27 6.32599 18.466 6.16599L20.636 5.87799C20.636 5.87799 20.636 5.87799 20.638 5.87799L22.378 4.54799C23.336 3.81599 24.666 3.81599 25.624 4.54799L27.364 5.87799L29.538 6.16799C30.734 6.32799 31.674 7.26799 31.834 8.46399L32.122 10.634L33.452 12.376C34.184 13.334 34.184 14.664 33.452 15.622L32.122 17.362C32.122 17.362 32.122 17.362 32.122 17.364L31.832 19.536C31.672 20.732 30.732 21.672 29.536 21.832L27.366 22.12L25.624 23.45C24.666 24.182 23.336 24.182 22.378 23.45L20.638 22.12C20.638 22.12 20.638 22.12 20.636 22.12L18.464 21.83C17.268 21.672 16.328 20.73 16.168 19.534Z" stroke="#DB1808" stroke-width="1.5" stroke-linecap="round" stroke-linejoin="round"/>
<path d="M27.1119 12.444L23.2219 16.334L20.8899 14" stroke="#DB1808" stroke-width="1.5" stroke-linecap="round" stroke-linejoin="round"/>
<path d="M14 30H34" stroke="#DB1808" stroke-width="1.5" stroke-linecap="round" stroke-linejoin="round"/>
<path d="M18 36H30" stroke="#DB1808" stroke-width="1.5" stroke-linecap="round" stroke-linejoin="round"/>
</svg>
