<svg width="48" height="48" viewBox="0 0 48 48" fill="none" xmlns="http://www.w3.org/2000/svg">
<path d="M25.88 22.12L11.74 36.26" stroke="#DB1808" stroke-width="1.5" stroke-linecap="round" stroke-linejoin="round"/>
<path d="M13.266 25.998L6.34003 24.362C5.57803 24.182 5.31003 23.236 5.86203 22.682L11.37 17.174C11.74 16.804 12.242 16.592 12.768 16.588L18.978 16.534" stroke="#DB1808" stroke-width="1.5" stroke-linecap="round" stroke-linejoin="round"/>
<path d="M39.758 17.95L41.374 10.174C41.814 8.058 39.942 6.186 37.826 6.626L30.05 8.242C27.76 8.718 25.66 9.852 24.008 11.506L17.628 17.884C15.194 20.318 13.61 23.474 13.11 26.88L13.088 27.026C12.772 29.2 13.5 31.394 15.052 32.948C16.604 34.5 18.8 35.228 20.974 34.91L21.12 34.888C24.526 34.39 27.682 32.804 30.116 30.37L36.494 23.992C38.148 22.34 39.282 20.24 39.758 17.95Z" stroke="#DB1808" stroke-width="1.5" stroke-linecap="round" stroke-linejoin="round"/>
<path d="M26.8 9.42801C31.422 12.58 35.42 16.578 38.572 21.2" stroke="#DB1808" stroke-width="1.5" stroke-linecap="round" stroke-linejoin="round"/>
<path d="M22 34.734L23.636 41.66C23.816 42.422 24.762 42.69 25.316 42.138L30.824 36.63C31.194 36.26 31.406 35.758 31.41 35.232L31.464 29.022" stroke="#DB1808" stroke-width="1.5" stroke-linecap="round" stroke-linejoin="round"/>
</svg>
