<svg width="48" height="48" viewBox="0 0 48 48" fill="none" xmlns="http://www.w3.org/2000/svg">
<path fill-rule="evenodd" clip-rule="evenodd" d="M26.8813 41.2874V40.5075C26.8877 38.2888 28.6848 36.4917 30.9035 36.4854H37.2652C39.4839 36.4917 41.281 38.2888 41.2873 40.5075V41.2874C41.2873 41.8178 40.8574 42.2478 40.3269 42.2478H27.8417C27.3113 42.2478 26.8813 41.8178 26.8813 41.2874Z" stroke="#DB1808" stroke-width="1.5" stroke-linecap="round" stroke-linejoin="round"/>
<path fill-rule="evenodd" clip-rule="evenodd" d="M30.3866 28.8789C29.9209 27.2102 30.6298 25.4363 32.1172 24.5481C33.6046 23.6598 35.5025 23.877 36.7507 25.0784C37.999 26.2797 38.2887 28.1679 37.4581 29.6882C36.6275 31.2085 34.882 31.9848 33.1967 31.5834C31.838 31.2598 30.762 30.2242 30.3866 28.8789Z" stroke="#DB1808" stroke-width="1.5" stroke-linecap="round" stroke-linejoin="round"/>
<path fill-rule="evenodd" clip-rule="evenodd" d="M4.79199 37.4456V36.6657C4.79832 34.447 6.5954 32.6499 8.81415 32.6436H15.1758C17.3946 32.6499 19.1917 34.447 19.198 36.6657V37.4456C19.198 37.976 18.768 38.406 18.2376 38.406H5.75239C5.22198 38.406 4.79199 37.976 4.79199 37.4456Z" stroke="#DB1808" stroke-width="1.5" stroke-linecap="round" stroke-linejoin="round"/>
<path fill-rule="evenodd" clip-rule="evenodd" d="M8.29748 25.0373C7.83182 23.3686 8.54066 21.5948 10.0281 20.7065C11.5155 19.8183 13.4133 20.0355 14.6616 21.2368C15.9099 22.4381 16.1996 24.3263 15.369 25.8466C14.5383 27.367 12.7929 28.1432 11.1076 27.7418C9.7489 27.4182 8.6729 26.3826 8.29748 25.0373Z" stroke="#DB1808" stroke-width="1.5" stroke-linecap="round" stroke-linejoin="round"/>
<path d="M33.5463 11.4476C33.5833 11.4114 33.6425 11.4118 33.679 11.4485C33.7154 11.4852 33.7154 11.5445 33.679 11.5812C33.6425 11.6179 33.5833 11.6183 33.5463 11.5821C33.5278 11.5646 33.5172 11.5403 33.5172 11.5148C33.5172 11.4894 33.5278 11.465 33.5463 11.4476" stroke="#DB1808" stroke-width="1.5" stroke-linecap="round" stroke-linejoin="round"/>
<path d="M28.5427 11.4476C28.5796 11.4114 28.6389 11.4118 28.6753 11.4485C28.7118 11.4852 28.7118 11.5445 28.6753 11.5812C28.6389 11.6179 28.5796 11.6183 28.5427 11.5821C28.5241 11.5646 28.5136 11.5403 28.5136 11.5148C28.5136 11.4894 28.5241 11.465 28.5427 11.4476" stroke="#DB1808" stroke-width="1.5" stroke-linecap="round" stroke-linejoin="round"/>
<path d="M23.539 11.4476C23.576 11.4114 23.6352 11.4118 23.6716 11.4485C23.7081 11.4852 23.7081 11.5445 23.6716 11.5812C23.6352 11.6179 23.576 11.6183 23.539 11.5821C23.5204 11.5646 23.5099 11.5403 23.5099 11.5148C23.5099 11.4894 23.5204 11.465 23.539 11.4476" stroke="#DB1808" stroke-width="1.5" stroke-linecap="round" stroke-linejoin="round"/>
<path fill-rule="evenodd" clip-rule="evenodd" d="M23.9999 17.2772V20.1584C23.999 20.5302 24.2126 20.8691 24.5483 21.0285C24.8841 21.188 25.2818 21.1394 25.5692 20.9037L29.5107 17.6941C29.8379 17.423 30.2499 17.2755 30.6747 17.2772H35.5248C37.6464 17.2772 39.3664 15.5573 39.3664 13.4356V9.59404C39.3664 7.47238 37.6464 5.75244 35.5248 5.75244H22.0791C19.9575 5.75244 18.2375 7.47238 18.2375 9.59404V13.4356C18.2375 15.5573 19.9575 17.2772 22.0791 17.2772H23.9999Z" stroke="#DB1808" stroke-width="1.5" stroke-linecap="round" stroke-linejoin="round"/>
</svg>
