<svg width="48" height="48" viewBox="0 0 48 48" fill="none" xmlns="http://www.w3.org/2000/svg">
<path d="M42 42L43.156 39.688C43.7112 38.5775 44.0002 37.3529 44 36.1114V23C44 22.2044 43.6839 21.4413 43.1213 20.8787C42.5587 20.3161 41.7956 20 41 20C40.2044 20 39.4413 20.3161 38.8787 20.8787C38.3161 21.4413 38 22.2044 38 23V31" stroke="#DB1808" stroke-width="1.5" stroke-linecap="round" stroke-linejoin="round"/>
<path d="M28 42V36.1734C28 35.3079 28.2807 34.4657 28.8 33.7734L32.1559 29.2988C32.435 28.9267 32.7908 28.6189 33.1992 28.3962C33.6076 28.1736 34.0591 28.0413 34.5231 28.0083C34.9871 27.9753 35.4527 28.0424 35.8885 28.2051C36.3243 28.3677 36.7201 28.6221 37.049 28.9511C37.6016 29.5037 37.9364 30.2371 37.9918 31.0167C38.0472 31.7963 37.8195 32.5697 37.3506 33.1949L35.2467 36.0001" stroke="#DB1808" stroke-width="1.5" stroke-linecap="round" stroke-linejoin="round"/>
<path d="M6 42L4.844 39.688C4.28878 38.5775 3.99982 37.3529 4 36.1114V23C4 22.2044 4.31607 21.4413 4.87868 20.8787C5.44129 20.3161 6.20435 20 7 20C7.79565 20 8.55871 20.3161 9.12132 20.8787C9.68393 21.4413 10 22.2044 10 23V31" stroke="#DB1808" stroke-width="1.5" stroke-linecap="round" stroke-linejoin="round"/>
<path d="M20 42V36.1734C20 35.3079 19.7192 34.4657 19.2 33.7734L15.8441 29.2988C15.565 28.9267 15.2092 28.6189 14.8008 28.3962C14.3924 28.1736 13.9409 28.0413 13.4769 28.0083C13.0129 27.9753 12.5472 28.0424 12.1114 28.2051C11.6756 28.3677 11.2799 28.6221 10.9509 28.9511C10.3983 29.5037 10.0636 30.2371 10.0082 31.0167C9.95277 31.7963 10.1804 32.5697 10.6494 33.1949L12.7533 36.0001" stroke="#DB1808" stroke-width="1.5" stroke-linecap="round" stroke-linejoin="round"/>
<path d="M18 13.7203V19.6687C18 20.2815 18.1707 20.8823 18.4929 21.4036C18.8151 21.9249 19.2761 22.3462 19.8242 22.6203L21.3168 23.3666C22.1499 23.7831 23.0686 24 24 24C24.9314 24 25.8501 23.7831 26.6832 23.3666L28.1758 22.6203C28.7239 22.3462 29.1849 21.9249 29.5071 21.4036C29.8293 20.8823 30 20.2815 30 19.6687V13.7203" stroke="#DB1808" stroke-width="1.5" stroke-linecap="round" stroke-linejoin="round"/>
<path d="M14.1111 11.7912L21.3368 15.3757C22.1645 15.7863 23.076 15.9999 23.9999 15.9999C24.9239 15.9999 25.8353 15.7863 26.663 15.3757L33.8887 11.7912C34.2224 11.6257 34.5033 11.3702 34.6996 11.0537C34.8959 10.7371 35 10.372 35 9.99953C35 9.62703 34.8959 9.26194 34.6996 8.94538C34.5033 8.62883 34.2224 8.37339 33.8887 8.20786L26.6663 4.62502C25.8376 4.21391 24.925 4 23.9999 4C23.0748 4 22.1623 4.21391 21.3335 4.62502L14.1111 8.20796C13.7775 8.3735 13.4966 8.62894 13.3003 8.94548C13.104 9.26202 13 9.6271 13 9.99958C13 10.3721 13.104 10.7371 13.3003 11.0537C13.4966 11.3702 13.7775 11.6257 14.1111 11.7912Z" stroke="#DB1808" stroke-width="1.5" stroke-linecap="round" stroke-linejoin="round"/>
<path d="M35 10V15" stroke="#DB1808" stroke-width="1.5" stroke-linecap="round" stroke-linejoin="round"/>
</svg>
