<svg width="48" height="48" viewBox="0 0 48 48" fill="none" xmlns="http://www.w3.org/2000/svg">
<g clip-path="url(#clip0_7_92)">
<path d="M13.4441 38.5561C12.2924 37.7247 11.2437 36.7592 10.3201 35.6801" stroke="#DB1808" stroke-width="1.5" stroke-linecap="round" stroke-linejoin="round"/>
<path d="M7.0459 18C8.15519 14.8627 10.1114 12.0937 12.6979 10" stroke="#DB1808" stroke-width="1.5" stroke-linecap="round" stroke-linejoin="round"/>
<path d="M6 24C6.00359 26.045 6.35737 28.0744 7.046 30" stroke="#DB1808" stroke-width="1.5" stroke-linecap="round" stroke-linejoin="round"/>
<path d="M39.118 8.81405C39.5902 9.28617 39.9118 9.88772 40.0421 10.5426C40.1724 11.1975 40.1056 11.8763 39.8501 12.4933C39.5945 13.1102 39.1618 13.6375 38.6066 14.0084C38.0515 14.3794 37.3987 14.5774 36.731 14.5774C36.0632 14.5774 35.4105 14.3794 34.8553 14.0084C34.3001 13.6375 33.8674 13.1102 33.6119 12.4933C33.3564 11.8763 33.2896 11.1975 33.4199 10.5426C33.5502 9.88772 33.8718 9.28617 34.344 8.81405C34.9771 8.18105 35.8357 7.82544 36.731 7.82544C37.6263 7.82544 38.4849 8.18105 39.118 8.81405Z" stroke="#DB1808" stroke-width="1.5" stroke-linecap="round" stroke-linejoin="round"/>
<path d="M24 42C26.6355 42.0103 29.2408 41.4395 31.6306 40.3282C34.0203 39.217 36.1357 37.5925 37.8262 35.5706C39.5166 33.5486 40.7405 31.1789 41.4108 28.63C42.081 26.0812 42.1811 23.4159 41.704 20.824" stroke="#DB1808" stroke-width="1.5" stroke-linecap="round" stroke-linejoin="round"/>
<path d="M34.106 9.10594C31.8836 7.59794 29.352 6.60636 26.6966 6.20388C24.0412 5.8014 21.3294 5.99823 18.76 6.77994" stroke="#DB1808" stroke-width="1.5" stroke-linecap="round" stroke-linejoin="round"/>
<path d="M14 24H18.636C19.4691 23.9994 20.268 23.6682 20.8571 23.0791C21.4463 22.49 21.7775 21.6911 21.778 20.858C21.7782 20.4453 21.697 20.0367 21.5392 19.6554C21.3813 19.2741 21.1498 18.9277 20.858 18.636L18.13 15.908" stroke="#DB1808" stroke-width="1.5" stroke-linecap="round" stroke-linejoin="round"/>
<path d="M31.0001 31.152L29.0241 28.192C28.849 27.9279 28.6112 27.7114 28.332 27.5617C28.0528 27.4119 27.7409 27.3337 27.4241 27.334C27.066 27.3343 26.7149 27.2347 26.4103 27.0464C26.1058 26.8581 25.8598 26.5885 25.7001 26.268L25.5521 25.974C25.4189 25.7061 25.3496 25.4111 25.3496 25.112C25.3496 24.8129 25.4189 24.5178 25.5521 24.25L26.8121 21.734C26.9716 21.4138 27.2173 21.1444 27.5215 20.9561C27.8257 20.7678 28.1763 20.668 28.5341 20.668H33.4321" stroke="#DB1808" stroke-width="1.5" stroke-linecap="round" stroke-linejoin="round"/>
<path d="M24 14C22.0222 14 20.0888 14.5865 18.4443 15.6853C16.7998 16.7841 15.5181 18.3459 14.7612 20.1732C14.0043 22.0004 13.8063 24.0111 14.1922 25.9509C14.578 27.8907 15.5304 29.6726 16.9289 31.0711C18.3275 32.4696 20.1093 33.422 22.0491 33.8079C23.9889 34.1937 25.9996 33.9957 27.8268 33.2388C29.6541 32.4819 31.2159 31.2002 32.3147 29.5557C33.4135 27.9112 34 25.9778 34 24C34.0021 22.6862 33.7449 21.3849 33.2431 20.1707C32.7413 18.9565 32.0048 17.8533 31.0758 16.9242C30.1468 15.9952 29.0435 15.2587 27.8293 14.7569C26.6151 14.2551 25.3138 13.9979 24 14Z" stroke="#DB1808" stroke-width="1.5" stroke-linecap="round" stroke-linejoin="round"/>
</g>
<defs>
<clipPath id="clip0_7_92">
<rect width="48" height="48" fill="white"/>
</clipPath>
</defs>
</svg>
