<svg width="48" height="48" viewBox="0 0 48 48" fill="none" xmlns="http://www.w3.org/2000/svg">
<path d="M28.1135 27.0811L28.7776 27.4297C28.9163 27.1655 28.8852 26.8442 28.6983 26.6116L28.1135 27.0811ZM26.4268 30.2939L25.7627 29.9453C25.6226 30.2122 25.6559 30.5371 25.8472 30.77C26.0386 31.0029 26.3508 31.0987 26.6398 31.013L26.4268 30.2939ZM30.5928 29.0595L30.9204 28.3848C30.752 28.3031 30.5592 28.2873 30.3798 28.3404L30.5928 29.0595ZM40.1915 22.5733C40.1915 26.1388 37.3011 29.0292 33.7356 29.0292V30.5292C38.1296 30.5292 41.6915 26.9672 41.6915 22.5733H40.1915ZM33.7356 16.1174C37.3011 16.1174 40.1915 19.0078 40.1915 22.5733H41.6915C41.6915 18.1794 38.1296 14.6174 33.7356 14.6174V16.1174ZM27.2798 22.5733C27.2798 19.0078 30.1702 16.1174 33.7356 16.1174V14.6174C29.3417 14.6174 25.7798 18.1794 25.7798 22.5733H27.2798ZM28.6983 26.6116C27.8105 25.5056 27.2798 24.1025 27.2798 22.5733H25.7798C25.7798 24.4561 26.4347 26.188 27.5287 27.5506L28.6983 26.6116ZM27.0908 30.6426L28.7776 27.4297L27.4495 26.7325L25.7627 29.9453L27.0908 30.6426ZM30.3798 28.3404L26.2137 29.5748L26.6398 31.013L30.8059 29.7786L30.3798 28.3404ZM33.7356 29.0292C32.7248 29.0292 31.7703 28.7974 30.9204 28.3848L30.2653 29.7343C31.315 30.2438 32.493 30.5292 33.7356 30.5292V29.0292Z" fill="#DB1808"/>
<path d="M6.9707 41H12.9413V36.8824V36.8824C15.4428 36.8824 17.4707 34.8545 17.4707 32.3529V31.8382H14.8972C13.817 31.8382 12.9413 30.9626 12.9413 29.8824V29.8824C12.9413 28.8021 13.817 27.9265 14.8972 27.9265H18.8089V24.3235H21.8972C20.7305 22.402 18.3972 18.0441 18.3972 15.9853C18.3972 13.4118 15.3089 6 6.9707 6" stroke="#DB1808" stroke-width="1.5" stroke-linecap="round" stroke-linejoin="round"/>
<path d="M10.9854 19.5882C11.9118 18.6617 14.1765 18.6617 15.2059 19.5882" stroke="#DB1808" stroke-width="1.5" stroke-linecap="round" stroke-linejoin="round"/>
<path d="M31.0591 23.2646L32.912 25.1176L36.8238 21.2058" stroke="#DB1808" stroke-width="1.5" stroke-linecap="round" stroke-linejoin="round"/>
</svg>
