<svg width="48" height="48" viewBox="0 0 48 48" fill="none" xmlns="http://www.w3.org/2000/svg">
<g clip-path="url(#clip0_7_104)">
<path d="M30 34V38C30 39.0609 29.5786 40.0783 28.8284 40.8284C28.0783 41.5786 27.0609 42 26 42H8C6.93913 42 5.92172 41.5786 5.17157 40.8284C4.42143 40.0783 4 39.0609 4 38V24C4 22.9391 4.42143 21.9217 5.17157 21.1716C5.92172 20.4214 6.93913 20 8 20H12" stroke="#DB1808" stroke-width="1.5" stroke-linecap="round" stroke-linejoin="round"/>
<path d="M38 26V30C38 31.0609 37.5786 32.0783 36.8284 32.8284C36.0783 33.5786 35.0609 34 34 34H16C14.9391 34 13.9217 33.5786 13.1716 32.8284C12.4214 32.0783 12 31.0609 12 30V16C12 14.9391 12.4214 13.9217 13.1716 13.1716C13.9217 12.4214 14.9391 12 16 12H20" stroke="#DB1808" stroke-width="1.5" stroke-linecap="round" stroke-linejoin="round"/>
<path d="M20 8V22C20 23.0609 20.4214 24.0783 21.1716 24.8284C21.9217 25.5786 22.9391 26 24 26H40C41.0609 26 42.0783 25.5786 42.8284 24.8284C43.5786 24.0783 44 23.0609 44 22V13.6569C44 12.596 43.5786 11.5786 42.8284 10.8284L37.1716 5.17158C36.8001 4.80014 36.3592 4.5055 35.8739 4.30448C35.3886 4.10346 34.8684 4 34.3431 4H24C22.9391 4 21.9217 4.42143 21.1716 5.17157C20.4214 5.92172 20 6.93913 20 8Z" stroke="#DB1808" stroke-width="1.5" stroke-linecap="round" stroke-linejoin="round"/>
</g>
<defs>
<clipPath id="clip0_7_104">
<rect width="48" height="48" fill="white"/>
</clipPath>
</defs>
</svg>
