<svg width="48" height="48" viewBox="0 0 48 48" fill="none" xmlns="http://www.w3.org/2000/svg">
<g clip-path="url(#clip0_7_84)">
<path d="M11.968 42H8C6.896 42 6 41.104 6 40V28C6 26.896 6.896 26 8 26H11.968C13.072 26 13.968 26.896 13.968 28V40C13.968 41.104 13.072 42 11.968 42Z" stroke="#DB1808" stroke-width="1.5" stroke-linecap="round" stroke-linejoin="round"/>
<path d="M25.92 34H30.568C31.43 34 32.268 33.72 32.958 33.2L37.77 29.576C38.972 28.672 40.652 28.792 41.714 29.858C42.892 31.042 42.892 32.96 41.714 34.142L37.586 38.288C36.474 39.404 35.058 40.166 33.514 40.476L27.676 41.648C26.52 41.88 25.326 41.852 24.18 41.564L18.902 40.24C18.272 40.08 17.622 40 16.97 40H13.968" stroke="#DB1808" stroke-width="1.5" stroke-linecap="round" stroke-linejoin="round"/>
<path d="M25.92 34H28.878C30.544 34 31.896 32.644 31.896 30.97V30.364C31.896 28.974 30.954 27.762 29.61 27.426L25.044 26.28C24.302 26.094 23.54 26 22.776 26C20.93 26 19.124 26.548 17.588 27.578L13.968 30" stroke="#DB1808" stroke-width="1.5" stroke-linecap="round" stroke-linejoin="round"/>
<path d="M30.572 7.32196L29.874 8.06796L29.174 7.32196C27.64 5.68596 25.096 5.55196 23.4 7.01596C21.666 8.51196 21.46 11.106 22.886 12.902C24.926 15.47 27.264 18.006 29.874 20C32.55 17.956 34.938 15.344 37.014 12.71C38.362 11 38.084 8.51796 36.44 7.09596L36.364 7.02996C34.652 5.55196 32.106 5.68596 30.572 7.32196Z" stroke="#DB1808" stroke-width="1.5" stroke-linecap="round" stroke-linejoin="round"/>
</g>
<defs>
<clipPath id="clip0_7_84">
<rect width="48" height="48" fill="white"/>
</clipPath>
</defs>
</svg>
