<svg width="33" height="32" viewBox="0 0 33 32" fill="none" xmlns="http://www.w3.org/2000/svg">
<path d="M28.6546 9.34347C27.18 9.34347 25.8194 8.83853 24.7268 7.98669C23.4737 7.01019 22.5733 5.57777 22.2554 3.92678C22.1767 3.51886 22.1343 3.0979 22.1302 2.6665H17.9178V14.564L17.9127 21.0809C17.9127 22.8231 16.8151 24.3004 15.2935 24.82C14.8519 24.9707 14.375 25.0422 13.8784 25.014C13.2445 24.978 12.6505 24.7803 12.1342 24.4611C11.0356 23.7819 10.2907 22.5498 10.2705 21.1403C10.2387 18.9374 11.9617 17.1414 14.0914 17.1414C14.5117 17.1414 14.9155 17.2124 15.2935 17.3412V14.0893V12.9203C14.8948 12.8593 14.489 12.8275 14.0787 12.8275C11.7477 12.8275 9.5675 13.829 8.00908 15.6334C6.83118 16.997 6.12464 18.7366 6.01563 20.5608C5.87281 22.9572 6.72116 25.2352 8.36638 26.9159C8.60812 27.1626 8.86197 27.3916 9.12742 27.6029C10.538 28.7249 12.2624 29.3332 14.0787 29.3332C14.489 29.3332 14.8948 29.3019 15.2935 29.2408C16.9902 28.9811 18.5557 28.1783 19.7911 26.9159C21.3091 25.3651 22.1479 23.3062 22.157 21.1148L22.1353 11.3831C22.8595 11.9605 23.6513 12.4384 24.5012 12.8092C25.8229 13.3856 27.2244 13.6778 28.6667 13.6772V10.5156V9.34243C28.6677 9.34347 28.6556 9.34347 28.6546 9.34347Z" fill="white"/>
</svg>
