<svg width="48" height="48" viewBox="0 0 48 48" fill="none" xmlns="http://www.w3.org/2000/svg">
<g clip-path="url(#clip0_7_119)">
<path d="M31.9999 29.538C31.0072 29.5417 30.0358 29.251 29.2083 28.7027C28.3809 28.1543 27.7346 27.3729 27.3513 26.4572C26.9679 25.5416 26.8647 24.5328 27.0547 23.5585C27.2447 22.5842 27.7193 21.6881 28.4185 20.9835C29.1178 20.2789 30.0103 19.7975 30.9831 19.6002C31.956 19.4028 32.9655 19.4984 33.884 19.8748C34.8026 20.2512 35.5888 20.8915 36.1435 21.7148C36.6981 22.5381 36.9961 23.5073 36.9999 24.5C37.0033 25.1593 36.8766 25.8129 36.627 26.4232C36.3774 27.0335 36.0098 27.5886 35.5454 28.0566C35.0809 28.5246 34.5286 28.8963 33.9202 29.1505C33.3118 29.4047 32.6592 29.5364 31.9999 29.538Z" stroke="#DB1808" stroke-width="1.5" stroke-linecap="round" stroke-linejoin="round"/>
<path d="M40.75 42H23.25C22.9188 41.999 22.6014 41.867 22.3672 41.6328C22.133 41.3986 22.001 41.0812 22 40.75V39.5C22.0039 38.1751 22.5319 36.9056 23.4688 35.9688C24.4056 35.0319 25.6751 34.5039 27 34.5H37C38.3249 34.5039 39.5944 35.0319 40.5312 35.9688C41.4681 36.9056 41.9961 38.1751 42 39.5V40.75C41.999 41.0812 41.867 41.3986 41.6328 41.6328C41.3986 41.867 41.0812 41.999 40.75 42Z" stroke="#DB1808" stroke-width="1.5" stroke-linecap="round" stroke-linejoin="round"/>
<path d="M31.4464 12C30.1678 10.1699 28.4695 8.67243 26.4936 7.63302C24.5177 6.5936 22.3216 6.04241 20.0891 6.02555C17.8565 6.00868 15.6524 6.52663 13.661 7.53607C11.6697 8.54551 9.94893 10.0171 8.64278 11.8278C7.33662 13.6384 6.483 15.7355 6.15331 17.9437C5.82362 20.1518 6.02744 22.4068 6.74774 24.52C7.46803 26.6332 8.68385 28.5433 10.2935 30.0904C11.9032 31.6375 13.8599 32.7766 16 33.4126" stroke="#DB1808" stroke-width="1.5" stroke-linecap="round" stroke-linejoin="round"/>
<path d="M22.6659 18.666L19.3359 22L17.3359 20" stroke="#DB1808" stroke-width="1.5" stroke-linecap="round" stroke-linejoin="round"/>
</g>
<defs>
<clipPath id="clip0_7_119">
<rect width="48" height="48" fill="white"/>
</clipPath>
</defs>
</svg>
