<svg width="48" height="48" viewBox="0 0 48 48" fill="none" xmlns="http://www.w3.org/2000/svg">
<g clip-path="url(#clip0_7_68)">
<path d="M22.9996 40H10.2505C9.51929 40 8.81325 39.7329 8.26508 39.249C7.71691 38.7651 7.36435 38.0977 7.27365 37.3721L6.02365 27.3721C5.97089 26.95 6.0085 26.5215 6.13398 26.1151C6.25946 25.7086 6.46994 25.3335 6.75146 25.0146C7.03298 24.6957 7.37909 24.4403 7.76685 24.2654C8.1546 24.0905 8.57511 24 9.00049 24H21.7496C22.4808 24 23.1869 24.2671 23.7351 24.751C24.2832 25.2349 24.6358 25.9024 24.7265 26.628L25.9765 36.628C26.0292 37.0501 25.9916 37.4786 25.8661 37.885C25.7406 38.2915 25.5301 38.6666 25.2486 38.9854C24.9671 39.3043 24.621 39.5597 24.2332 39.7346C23.8455 39.9095 23.425 40 22.9996 40Z" stroke="#DB1808" stroke-width="1.5" stroke-linecap="round" stroke-linejoin="round"/>
<path d="M35.411 40H22.6016" stroke="#DB1808" stroke-width="1.5" stroke-linecap="round" stroke-linejoin="round"/>
<path d="M29 17C32.0376 17 34.5 14.5376 34.5 11.5C34.5 8.46243 32.0376 6 29 6C25.9624 6 23.5 8.46243 23.5 11.5C23.5 14.5376 25.9624 17 29 17Z" stroke="#DB1808" stroke-width="1.5" stroke-linecap="round" stroke-linejoin="round"/>
<path d="M30 24H36C37.5913 24 39.1174 24.6321 40.2426 25.7574C41.3679 26.8826 42 28.4087 42 30V32C42 32.5304 41.7893 33.0391 41.4142 33.4142C41.0391 33.7893 40.5304 34 40 34H34" stroke="#DB1808" stroke-width="1.5" stroke-linecap="round" stroke-linejoin="round"/>
</g>
<defs>
<clipPath id="clip0_7_68">
<rect width="48" height="48" fill="white"/>
</clipPath>
</defs>
</svg>
