<svg width="33" height="32" viewBox="0 0 33 32" fill="none" xmlns="http://www.w3.org/2000/svg">
<path d="M16.6667 4C10.0512 4 4.66675 9.38443 4.66675 16C4.66675 22.6156 10.0512 28 16.6667 28C23.2823 28 28.6667 22.6156 28.6667 16C28.6667 9.38443 23.2823 4 16.6667 4ZM16.6667 6C22.2014 6 26.6667 10.4653 26.6667 16C26.6667 21.0274 22.9784 25.1613 18.155 25.8789V18.916H21.0027L21.45 16.0234H18.155V14.4434C18.155 13.2424 18.5496 12.1758 19.6726 12.1758H21.4773V9.65234C21.1603 9.60934 20.4894 9.51562 19.2214 9.51562C16.5734 9.51562 15.0222 10.9136 15.0222 14.0996V16.0234H12.2996V18.916H15.0222V25.8535C10.2756 25.0706 6.66675 20.973 6.66675 16C6.66675 10.4653 11.1321 6 16.6667 6Z" fill="white"/>
</svg>
