<svg width="33" height="32" viewBox="0 0 33 32" fill="none" xmlns="http://www.w3.org/2000/svg">
<path d="M12.1355 5C8.58472 5 5.66675 7.91406 5.66675 11.4688V20.5312C5.66675 24.082 8.58081 27 12.1355 27H21.198C24.7488 27 27.6667 24.0859 27.6667 20.5312V11.4688C27.6667 7.91797 24.7527 5 21.198 5H12.1355ZM12.1355 7H21.198C23.6707 7 25.6667 8.99609 25.6667 11.4688V20.5312C25.6667 23.0039 23.6707 25 21.198 25H12.1355C9.66284 25 7.66675 23.0039 7.66675 20.5312V11.4688C7.66675 8.99609 9.66284 7 12.1355 7ZM22.573 9.1875C22.0691 9.1875 21.6667 9.58984 21.6667 10.0938C21.6667 10.5977 22.0691 11 22.573 11C23.0769 11 23.4792 10.5977 23.4792 10.0938C23.4792 9.58984 23.0769 9.1875 22.573 9.1875ZM16.6667 10C13.366 10 10.6667 12.6992 10.6667 16C10.6667 19.3008 13.366 22 16.6667 22C19.9675 22 22.6667 19.3008 22.6667 16C22.6667 12.6992 19.9675 10 16.6667 10ZM16.6667 12C18.8894 12 20.6667 13.7773 20.6667 16C20.6667 18.2227 18.8894 20 16.6667 20C14.4441 20 12.6667 18.2227 12.6667 16C12.6667 13.7773 14.4441 12 16.6667 12Z" fill="white"/>
</svg>
