<svg width="33" height="32" viewBox="0 0 33 32" fill="none" xmlns="http://www.w3.org/2000/svg">
<path d="M9.30933 4C7.85033 4 6.66675 5.18163 6.66675 6.64062C6.66675 8.09963 7.84937 9.30859 9.30737 9.30859C10.7654 9.30859 11.95 8.09963 11.95 6.64062C11.95 5.18263 10.7683 4 9.30933 4ZM22.2019 11C19.9829 11 18.7132 12.1605 18.1042 13.3145H18.0398V11.3105H13.6667V26H18.2234V18.7285C18.2234 16.8125 18.368 14.9609 20.739 14.9609C23.076 14.9609 23.1101 17.1456 23.1101 18.8496V26H27.6609H27.6667V17.9316C27.6667 13.9836 26.8179 11 22.2019 11ZM7.03003 11.3105V26H11.5906V11.3105H7.03003Z" fill="white"/>
</svg>
