<svg width="33" height="32" viewBox="0 0 33 32" fill="none" xmlns="http://www.w3.org/2000/svg">
<path d="M16.6667 7C16.6667 7 7.88534 6.99829 5.72534 7.52878C4.52534 7.83976 3.56487 8.69953 3.24487 9.8154C2.66487 11.8093 2.66675 16.0179 2.66675 16.0179C2.66675 16.0179 2.66487 20.226 3.24487 22.2382C3.56487 23.3358 4.52534 24.1785 5.72534 24.4712C7.88534 25.0017 16.6667 25 16.6667 25C16.6667 25 25.4482 25.0017 27.6082 24.4712C28.8082 24.1602 29.7686 23.3362 30.0886 22.2203C30.6686 20.2264 30.6667 16.0179 30.6667 16.0179C30.6667 16.0179 30.6686 11.8276 30.0886 9.8154C29.7686 8.69953 28.8082 7.83976 27.6082 7.52878C25.4482 6.99829 16.6667 7 16.6667 7ZM12.6667 10.7979L22.6667 16.0214L12.6667 21.2199V10.7979Z" fill="white"/>
</svg>
