<svg width="111" height="40" viewBox="0 0 111 40" fill="none" xmlns="http://www.w3.org/2000/svg">
<g clip-path="url(#clip0_294_25)">
<path d="M58.1173 29.8571L55.5263 37.2476H56.5169L57.0885 35.5905H60.213L60.7845 37.2476H61.7752L59.1937 29.8571H58.1173ZM57.3552 34.8095L58.6507 31.0571L59.9463 34.8095H57.3552Z" fill="#262120"/>
<path d="M65.2998 32.1333C66.1285 32.1333 66.7001 32.581 66.8906 33.2857H67.9003C67.6146 32.0571 66.7001 31.3143 65.2998 31.3143C63.6994 31.3143 62.5563 32.4857 62.5563 34.3238C62.5563 36.1619 63.6994 37.3524 65.2998 37.3524C66.7001 37.3524 67.6146 36.5429 67.9003 35.381H66.8906C66.681 36.1143 66.1285 36.5333 65.2998 36.5333C64.271 36.5333 63.5089 35.7714 63.5089 34.3238C63.5089 32.8762 64.271 32.1333 65.2998 32.1333Z" fill="#262120"/>
<path d="M73.5778 32.4667C73.2444 31.8571 72.5299 31.3048 71.4821 31.3048C69.9675 31.3048 68.8053 32.4762 68.8053 34.3048C68.8053 36.1333 69.9675 37.3429 71.4725 37.3429C72.5109 37.3429 73.2444 36.7905 73.5778 36.1619V37.2476H74.5208V31.4H73.5778V32.4667ZM71.6631 36.4857C70.6343 36.4857 69.7579 35.6762 69.7579 34.2952C69.7579 32.9143 70.6343 32.1429 71.6631 32.1429C72.6919 32.1429 73.5778 32.9524 73.5778 34.3048C73.5778 35.6571 72.6919 36.4762 71.6631 36.4762V36.4857Z" fill="#262120"/>
<path d="M80.5221 32.4476C80.1315 31.7714 79.3218 31.3048 78.4359 31.3048C76.9118 31.3048 75.7496 32.4762 75.7496 34.3048C75.7496 36.1333 76.9118 37.3429 78.4264 37.3429C79.4552 37.3429 80.1887 36.8 80.5221 36.1524V37.2476H81.4652V29.3524H80.5221V32.4476ZM78.6074 36.4857C77.5786 36.4857 76.7022 35.6762 76.7022 34.2952C76.7022 32.9143 77.5786 32.1429 78.6074 32.1429C79.6362 32.1429 80.5221 32.9524 80.5221 34.3048C80.5221 35.6571 79.6362 36.4762 78.6074 36.4762V36.4857Z" fill="#262120"/>
<path d="M85.4851 31.3048C83.8371 31.3048 82.694 32.4667 82.694 34.3143C82.694 36.1619 83.8752 37.3429 85.4851 37.3429C86.8854 37.3429 87.7903 36.5143 88.0761 35.4476H87.0664C86.8568 36.0762 86.3234 36.5238 85.4851 36.5238C84.5325 36.5238 83.7228 35.8762 83.6561 34.6857H88.1619C88.1809 34.4857 88.1904 34.3143 88.1904 34.0952C88.1904 32.4952 87.1235 31.3048 85.4851 31.3048ZM83.6656 33.8952C83.7704 32.7524 84.5325 32.1238 85.447 32.1238C86.4091 32.1238 87.2378 32.7524 87.2283 33.8952H83.6656Z" fill="#262120"/>
<path d="M96.2017 31.2952C95.3348 31.2952 94.5347 31.7524 94.2108 32.6C93.8393 31.7238 93.0677 31.2952 92.1437 31.2952C91.4006 31.2952 90.7338 31.6286 90.3623 32.2476V31.4095H89.4288V37.2571H90.3623V34.0381C90.3623 32.781 91.0101 32.1524 91.9531 32.1524C92.8962 32.1524 93.4963 32.7619 93.4963 33.9524V37.2571H94.4203V34.0381C94.4203 32.781 95.0681 32.1524 96.0112 32.1524C96.9542 32.1524 97.5544 32.7619 97.5544 33.9524V37.2571H98.4784V33.8095C98.4784 32.1333 97.4781 31.3048 96.1922 31.3048L96.2017 31.2952Z" fill="#262120"/>
<path d="M103.908 31.4095L102.165 36.1429L100.393 31.4095H99.3547L101.631 37.181L100.517 40H101.479L104.88 31.4095H103.908Z" fill="#262120"/>
<path d="M110.404 5.71429H110.014H109.909L109.042 7.92381L108.166 5.71429H108.061H107.671H107.576V8.73333H108.061V6.67619L108.909 8.73333H109.166L110.014 6.67619V8.73333H110.499V5.71429H110.404Z" fill="#262120"/>
<path d="M104.899 6.17143H105.746V8.73333H106.232V6.17143H107.089V5.71429H104.899V6.17143Z" fill="#262120"/>
<path d="M27.806 12.6762C28.4156 12.3333 29.1015 12.1524 29.8731 12.1524C30.578 12.1524 31.1972 12.3048 31.7402 12.6095C32.2736 12.9143 32.7023 13.3714 32.9976 13.9905H35.3028C34.8647 12.8667 34.1597 12.0095 33.1881 11.4C32.226 10.781 31.121 10.4762 29.8731 10.4762C28.7872 10.4762 27.7869 10.7333 26.8629 11.2476C25.958 11.7524 25.234 12.4571 24.691 13.3619C24.1671 14.2667 23.9004 15.2952 23.9004 16.4381C23.9004 17.581 24.1671 18.6095 24.691 19.5143C25.2245 20.4191 25.9484 21.1333 26.8629 21.6476C27.7679 22.1524 28.7776 22.4 29.8731 22.4C31.121 22.4 32.226 22.0952 33.1881 21.4952C34.1597 20.8857 34.8742 20.0286 35.3028 18.9048H32.9976C32.6928 19.5238 32.2736 19.981 31.7402 20.2857C31.2067 20.5905 30.578 20.7429 29.8731 20.7429C29.1015 20.7429 28.4061 20.5714 27.806 20.2191C27.1963 19.8571 26.72 19.3524 26.3771 18.7048C26.0437 18.0571 25.8722 17.2952 25.8722 16.4381C25.8722 15.581 26.0437 14.8191 26.3771 14.1714C26.72 13.5238 27.1963 13.0191 27.806 12.6762Z" fill="#262120"/>
<path d="M44.4953 14.3905C44.1714 13.9619 43.7332 13.6095 43.1807 13.3333C42.6473 13.0381 42.0091 12.8952 41.2851 12.8952C40.4754 12.8952 39.7419 13.0952 39.0656 13.5048C38.4083 13.8952 37.8748 14.4476 37.4843 15.1714C37.1032 15.8857 36.9127 16.7143 36.9127 17.6476C36.9127 18.5809 37.1032 19.4095 37.4843 20.1524C37.8748 20.8762 38.3987 21.4571 39.0656 21.8667C39.7228 22.2667 40.4563 22.4762 41.247 22.4762C41.9614 22.4762 42.5997 22.3333 43.1617 22.0381C43.7237 21.7429 44.1619 21.3809 44.4858 20.9429V22.3238H46.4195V13.0476H44.4858V14.3905H44.4953ZM44.0952 19.3524C43.838 19.819 43.4951 20.1809 43.0664 20.4286C42.6378 20.6762 42.1805 20.8 41.6852 20.8C41.1898 20.8 40.7421 20.6762 40.3039 20.4286C39.8753 20.1714 39.5323 19.8 39.2656 19.3143C39.0084 18.8286 38.875 18.2762 38.875 17.6286C38.875 16.9809 39.0084 16.4381 39.2656 15.9809C39.5323 15.5143 39.8848 15.1524 40.3039 14.9238C40.7326 14.6762 41.1898 14.5524 41.6852 14.5524C42.1805 14.5524 42.6378 14.6762 43.0664 14.9238C43.4951 15.1714 43.838 15.5333 44.0952 16C44.3619 16.4667 44.4953 17.0286 44.4953 17.6667C44.4953 18.3048 44.3619 18.8667 44.0952 19.3524Z" fill="#262120"/>
<path d="M55.5739 13.3524C55.0023 13.0476 54.3546 12.8952 53.6211 12.8952C53.0686 12.8952 52.5542 13 52.0588 13.219C51.573 13.4286 51.1825 13.7333 50.8681 14.1143V13.0571H48.9534V22.3238H50.8681V17.1429C50.8681 16.3143 51.0777 15.6762 51.4873 15.2476C51.9159 14.8 52.4875 14.5714 53.2019 14.5714C53.9164 14.5714 54.4879 14.8 54.8975 15.2476C55.3167 15.6857 55.5167 16.3143 55.5167 17.1429V22.3238H57.4124V16.8571C57.4124 16.019 57.2504 15.2952 56.9265 14.7048C56.6027 14.1143 56.1454 13.6667 55.5644 13.3619L55.5739 13.3524Z" fill="#262120"/>
<path d="M66.8144 14.3905C66.4905 13.9619 66.0523 13.6095 65.4998 13.3333C64.9664 13.0381 64.3281 12.8952 63.6042 12.8952C62.7945 12.8952 62.061 13.0952 61.3847 13.5048C60.7274 13.8952 60.1939 14.4476 59.8034 15.1714C59.4223 15.8857 59.2318 16.7143 59.2318 17.6476C59.2318 18.5809 59.4223 19.4095 59.8034 20.1524C60.1939 20.8762 60.7274 21.4571 61.3847 21.8667C62.0419 22.2667 62.7754 22.4762 63.5661 22.4762C64.2805 22.4762 64.9187 22.3333 65.4808 22.0381C66.0428 21.7429 66.481 21.3809 66.8049 20.9429V22.3238H68.7386V13.0476H66.8049V14.3905H66.8144ZM66.4143 19.3524C66.1571 19.819 65.8142 20.1809 65.3855 20.4286C64.9569 20.6762 64.4996 20.8 64.0043 20.8C63.5089 20.8 63.0612 20.6762 62.623 20.4286C62.1944 20.1714 61.8514 19.8 61.5847 19.3143C61.3275 18.8286 61.1941 18.2762 61.1941 17.6286C61.1941 16.9809 61.3275 16.4381 61.5847 15.9809C61.8514 15.5143 62.2039 15.1524 62.623 14.9238C63.0517 14.6762 63.5089 14.5524 64.0043 14.5524C64.4996 14.5524 64.9569 14.6762 65.3855 14.9238C65.8142 15.1714 66.1571 15.5333 66.4143 16C66.681 16.4667 66.8144 17.0286 66.8144 17.6667C66.8144 18.3048 66.681 18.8667 66.4143 19.3524Z" fill="#262120"/>
<path d="M79.9029 20.4667L78.0263 13.0476H76.0259L74.054 20.4952L72.1203 13.0476H70.1675L73.0634 22.3143H75.0828L76.9499 15.4667L78.817 22.3143H80.8365L83.7038 13.0476H81.8272L79.9029 20.4667Z" fill="#262120"/>
<path d="M92.0865 14.3905C91.7626 13.9619 91.3244 13.6095 90.7719 13.3333C90.2385 13.0381 89.6003 12.8952 88.8763 12.8952C88.0666 12.8952 87.3331 13.0952 86.6568 13.5048C85.9995 13.8952 85.466 14.4476 85.0755 15.1714C84.6944 15.8857 84.5039 16.7143 84.5039 17.6476C84.5039 18.5809 84.6944 19.4095 85.0755 20.1524C85.466 20.8762 85.9995 21.4571 86.6568 21.8667C87.3141 22.2667 88.0475 22.4762 88.8382 22.4762C89.5526 22.4762 90.1909 22.3333 90.7529 22.0381C91.3149 21.7429 91.7531 21.3809 92.077 20.9429V22.3238H94.0107V13.0476H92.077V14.3905H92.0865ZM91.6864 19.3524C91.4292 19.819 91.0863 20.1809 90.6576 20.4286C90.229 20.6762 89.7717 20.8 89.2764 20.8C88.781 20.8 88.3333 20.6762 87.8951 20.4286C87.4665 20.1714 87.1235 19.8 86.8568 19.3143C86.5996 18.8286 86.4662 18.2762 86.4662 17.6286C86.4662 16.9809 86.5996 16.4381 86.8568 15.9809C87.1235 15.5143 87.476 15.1524 87.8951 14.9238C88.3238 14.6762 88.781 14.5524 89.2764 14.5524C89.7717 14.5524 90.229 14.6762 90.6576 14.9238C91.0863 15.1714 91.4292 15.5333 91.6864 16C91.9531 16.4667 92.0865 17.0286 92.0865 17.6667C92.0865 18.3048 91.9531 18.8667 91.6864 19.3524Z" fill="#262120"/>
<path d="M100.183 20.1143L97.5829 13.0476H95.4396L99.0975 22.1619L97.2114 26.6667H99.1928L104.88 13.0476H102.889L100.183 20.1143Z" fill="#262120"/>
<path d="M26.1294 27.1429C25.8437 27.0476 25.5674 26.9619 25.2912 26.8476C25.0625 26.7524 24.8434 26.6381 24.6148 26.5333C22.3191 28.4095 19.3851 29.5333 16.194 29.5333C8.83047 29.5333 2.85776 23.5619 2.85776 16.2C2.85776 8.83809 8.83047 2.85714 16.194 2.85714C19.5756 2.85714 22.662 4.12381 25.0054 6.2C25.1197 6.14286 25.234 6.08571 25.3578 6.02857C25.5388 5.95238 25.7294 5.89524 25.9103 5.82857C26.1866 5.73333 26.4628 5.62857 26.7581 5.55238C27.1106 5.45714 27.4821 5.39048 27.8536 5.33333C27.9489 5.31429 28.0441 5.29524 28.1394 5.27619C25.1769 2.04762 20.9283 0 16.194 0C7.24918 0 0 7.24762 0 16.1905C0 25.1333 7.24918 32.381 16.194 32.381C20.7188 32.381 24.8053 30.5238 27.7393 27.5333C27.3869 27.4762 27.0439 27.419 26.701 27.3238C26.5009 27.2762 26.3104 27.2 26.1199 27.1333L26.1294 27.1429Z" fill="#262120"/>
<path d="M19.4042 20.9238C18.8422 19.5524 18.5659 18.0571 18.5659 16.4381C18.5659 14.9048 18.8326 13.4952 19.328 12.181L19.5661 10.8C19.6233 10.4762 19.6804 10.1429 19.7376 9.81905V9.78095H19.7281L19.6423 9.82857L18.7374 10.3238C18.6707 10.3619 18.604 10.3905 18.5278 10.4095C18.4706 10.4286 18.423 10.4286 18.3659 10.4095C18.3087 10.3905 18.2611 10.3619 18.2134 10.3143C18.1563 10.2476 18.1087 10.181 18.0706 10.1048C17.7848 9.53333 17.499 8.9619 17.2228 8.4L16.8703 7.72381C16.8703 7.72381 16.8322 7.64762 16.7941 7.6C16.7655 7.64762 16.7369 7.68571 16.7179 7.72381L16.3654 8.4C16.0892 8.9619 15.8034 9.53333 15.5176 10.1048C15.4795 10.181 15.4319 10.2476 15.3747 10.3143C15.3366 10.3619 15.2795 10.4 15.2223 10.4095C15.1652 10.419 15.108 10.4286 15.0604 10.4095C14.9842 10.3905 14.9175 10.3619 14.8508 10.3238L13.9459 9.82857L13.8601 9.78095H13.8506V9.81905C13.9078 10.1429 13.9649 10.4667 14.0221 10.8L14.5269 13.7048C14.5555 13.8667 14.565 14.0286 14.5555 14.1905C14.5555 14.219 14.5555 14.2571 14.5365 14.2857C14.5269 14.3143 14.5079 14.3429 14.4793 14.3619C14.4603 14.381 14.4317 14.4 14.4031 14.4095C14.3745 14.419 14.3459 14.419 14.3078 14.4095C14.2602 14.4095 14.2126 14.3905 14.165 14.3619C14.0983 14.3143 14.0411 14.2667 13.984 14.2095C13.8887 14.1143 13.8125 14.0095 13.7268 13.9048L12.4027 12.3048C12.4027 12.3048 12.3646 12.2667 12.3455 12.2381C12.3265 12.2762 12.3169 12.3143 12.3074 12.3429C12.2407 12.6 12.1741 12.8476 12.1074 13.0952C12.0883 13.1714 12.0597 13.2381 12.0216 13.3143C12.0026 13.3524 11.974 13.3905 11.9359 13.4095C11.8978 13.4381 11.8597 13.4476 11.8216 13.4476C11.7549 13.4476 11.6787 13.4476 11.612 13.4476L10.6499 13.2286L9.73543 13.0286C9.73543 13.0286 9.66875 13.0286 9.63065 13.0286C9.63065 13.0476 9.63065 13.0762 9.63065 13.0952L9.73543 13.5333C9.89737 14.1905 10.0688 14.8381 10.2308 15.4952C10.2403 15.5429 10.2498 15.6 10.2594 15.6476C10.2594 15.6952 10.2594 15.7333 10.2403 15.7714C10.2212 15.8095 10.1927 15.8476 10.1641 15.8667C10.1165 15.8952 10.0688 15.9238 10.0117 15.9524L9.36392 16.2857L9.30677 16.3238L9.41155 16.419L10.6975 17.5524C11.4025 18.1714 12.0978 18.7905 12.8028 19.4095C12.8694 19.4667 12.9266 19.5238 12.9742 19.5905C13.0123 19.6381 13.0314 19.6857 13.0409 19.7429C13.0504 19.8 13.06 19.8571 13.0409 19.9143C13.0314 19.981 13.0123 20.0571 12.9933 20.1238C12.9171 20.419 12.8313 20.7143 12.7456 21.0095C12.7456 21.0381 12.7456 21.0571 12.7266 21.0952H12.8123L12.9647 21.0762L13.9268 20.9333L14.2316 20.8857L14.8889 20.7905L15.9082 20.6476C16.0034 20.6476 16.1082 20.6286 16.2035 20.619H16.3369C16.3559 20.619 16.375 20.619 16.394 20.619C16.4321 20.6381 16.4607 20.6571 16.4893 20.6857C16.5178 20.7143 16.5369 20.7524 16.5559 20.7905C16.575 20.8286 16.575 20.8762 16.575 20.9143C16.575 20.9619 16.575 21.019 16.575 21.0667C16.575 21.4667 16.5464 21.8667 16.5274 22.2667L16.4607 23.7714C16.4607 24.0952 16.4321 24.4095 16.4226 24.7333V24.9714C16.4226 24.9714 16.4226 24.9714 16.4321 24.9714C16.4797 24.9714 16.5274 24.9714 16.5655 24.9714C16.5655 24.9714 16.5655 24.9714 16.575 24.9714C16.7179 24.9714 16.8608 24.9809 17.0037 24.9714C17.0037 24.9714 17.0037 24.9714 17.0132 24.9714C17.0608 24.9714 17.1084 24.9714 17.1466 24.9714C17.1466 24.9714 17.1466 24.9714 17.1561 24.9714V24.7333C17.1466 24.4095 17.118 24.0952 17.118 23.7714L17.0513 22.2667C17.0322 21.8667 17.0037 21.4667 17.0037 21.0667C17.0037 21.019 17.0037 20.9619 17.0037 20.9143C17.0037 20.8667 17.0037 20.8286 17.0227 20.7905C17.0418 20.7524 17.0608 20.7143 17.0894 20.6857C17.118 20.6571 17.1466 20.6381 17.1847 20.619C17.2037 20.619 17.2228 20.6095 17.2418 20.619H17.3752C17.4704 20.619 17.5752 20.6476 17.6705 20.6476L18.6897 20.7905L19.347 20.8857H19.3756L19.4042 20.9238Z" fill="#262120"/>
</g>
<defs>
<clipPath id="clip0_294_25">
<rect width="110.5" height="40" fill="white"/>
</clipPath>
</defs>
</svg>
